# xmcd
#
# Track frame offsets: 
#        150
#        12947
#        29665
#        43497
#        60607
#        78491
#        87467
#        97927
#        120214
#        130352
#        148413
#        162128
#        176609
#        188958
#
# Disc length: 2626 seconds
#
# Revision: 1
# Processed by: cddbd v1.5.2PL0 Copyright (c) Steve Scherf et al.
# Submitted via: ExactAudioCopy v1.0b3
#
DISCID=c20a400e
DTITLE=Jan Erik Vold, Kåre Virud ogTelemark Blueslag - Stein. Regn
DYEAR=1981
DGENRE=Blues
TTITLE0=Damer i regn
TTITLE1=Du skal ha flaks for å flire, du skal ha tur for å ta trikk
TTITLE2=Preike trea verdenskrig blues
TTITLE3=Til Ramona
TTITLE4=Syner av Joanna
TTITLE5=Rubbel og bit
TTITLE6=Måtte treffe spåmann
TTITLE7=Lågfot Aveny
TTITLE8=Leopardskinns badehetta di blues
TTITLE9=Ingentingen kom fram
TTITLE10=Motorpsyko mareritt
TTITLE11=Kjære gårdeier
TTITLE12=Europaveien rundt
TTITLE13=Vintervene, Vinterpene
EXTD=
EXTT0=
EXTT1=
EXTT2=
EXTT3=
EXTT4=
EXTT5=
EXTT6=
EXTT7=
EXTT8=
EXTT9=
EXTT10=
EXTT11=
EXTT12=
EXTT13=
PLAYORDER=
